<?xml version="1.0" standalone="no"?>
<!DOCTYPE svg PUBLIC "-//W3C//DTD SVG 20010904//EN" "http://www.w3.org/TR/2001/REC-SVG-20010904/DTD/svg10.dtd">
<svg version="1.0" xmlns="http://www.w3.org/2000/svg" width="981.000000pt" height="978.000000pt" viewBox="0 0 981.000000 978.000000" preserveAspectRatio="xMidYMid meet">
    <g transform="translate(0.000000,978.000000) scale(0.100000,-0.100000)">
        <path fill="currentColor" d="M4595 9704 c-1402 -335 -3978 -986 -4444 -1123 -56 -17 -82 -40 -109
-99 l-27 -57 1 -2968 0 -2967 38 -39 c49 -50 281 -171 966 -506 1566 -766
3466 -1669 3970 -1887 99 -43 121 -49 159 -44 43 6 97 32 466 228 155 83 1413
741 2375 1243 464 242 927 485 1439 756 273 144 330 186 351 255 25 89 40
3918 21 5355 l-8 586 -26 57 c-20 44 -34 60 -60 71 -94 39 -1125 306 -2737
709 -1411 353 -2013 496 -2075 495 -16 0 -151 -29 -300 -65z m2292 -845 c1061
-265 1931 -484 1935 -488 7 -6 -618 -225 -2437 -856 -1180 -409 -1257 -435
-1283 -435 -12 0 -144 39 -294 86 -317 99 -1489 473 -1918 611 -162 52 -428
137 -590 189 -712 230 -1226 397 -1240 405 -20 10 -31 7 250 79 1351 350 3541
887 3622 889 15 1 895 -216 1955 -480z m-5727 -977 c658 -209 1451 -463 3043
-973 l697 -223 -2 -3061 c-3 -2996 -3 -3060 -22 -3057 -18 3 -653 305 -1561
742 -220 106 -454 218 -520 250 -66 31 -295 142 -510 245 -214 103 -455 219
-535 257 -80 39 -172 83 -205 98 -222 105 -1080 521 -1086 527 -12 14 -17
5424 -5 5420 6 -2 324 -104 706 -225z m8197 161 c4 -27 8 -1244 8 -2706 l0
-2658 -1190 -620 c-2327 -1212 -2821 -1467 -2830 -1457 -31 30 -30 5816 1
6045 l6 50 342 121 c334 119 468 166 1286 452 540 189 1456 508 1815 632 160
55 346 119 415 143 69 24 128 44 132 44 4 1 10 -20 15 -46z" />
        <path fill="currentColor" d="M4815 8733 c-264 -36 -465 -167 -465 -302 0 -102 169 -228 360 -268
69 -15 134 -18 340 -18 284 0 331 8 484 79 85 39 130 75 168 135 50 79 36 143
-45 218 -85 79 -204 128 -357 148 -96 13 -409 18 -485 8z" />
        <path fill="currentColor" d="M3342 5936 c-220 -72 -305 -343 -206 -659 75 -238 241 -440 444 -540
82 -40 89 -42 180 -42 84 0 101 3 145 27 199 105 265 307 195 597 -64 266
-261 509 -485 600 -74 30 -208 38 -273 17z" />
        <path fill="currentColor" d="M2321 5150 c-204 -42 -305 -227 -273 -499 25 -217 112 -398 261 -546
257 -255 548 -245 674 24 29 60 32 77 35 181 4 130 -16 239 -67 361 -89 212
-275 407 -441 462 -62 20 -137 27 -189 17z" />
        <path fill="currentColor" d="M1242 4377 c-46 -14 -123 -86 -149 -139 -42 -82 -56 -163 -50 -278 7
-129 35 -237 92 -355 83 -172 199 -296 343 -367 72 -36 93 -42 166 -46 73 -4
91 -1 138 20 141 65 197 197 185 438 -9 176 -46 285 -146 434 -97 143 -216
245 -335 286 -65 22 -186 26 -244 7z" />
        <path fill="currentColor" d="M6960 5577 c-271 -98 -502 -435 -517 -757 -10 -213 58 -365 193 -431
72 -34 197 -39 284 -9 183 61 338 216 445 444 24 50 51 118 60 151 22 83 30
246 16 317 -27 126 -108 235 -209 281 -73 32 -190 34 -272 4z" />
        <path fill="currentColor" d="M8286 4674 c-188 -46 -367 -214 -477 -449 -151 -321 -99 -639 120
-738 65 -30 186 -29 259 1 195 80 376 299 457 552 33 104 45 267 25 351 -29
125 -97 222 -183 263 -68 32 -128 38 -201 20z" />
    </g>
</svg>